<mxfile>
    <diagram name="Page-1" id="b5b7bab2-c9e2-2cf4-8b2a-24fd1a2a6d21">
        <mxGraphModel dx="1581" dy="849" grid="0" gridSize="10" guides="0" tooltips="1" connect="1" arrows="1" fold="1" page="0" pageScale="1" pageWidth="827" pageHeight="1169" background="#ffffff" math="0" shadow="0">
            <root>
                <mxCell id="0"/>
                <mxCell id="1" parent="0"/>
                <mxCell id="MoiTgc7sWNlrWl-F0rcY-3" value="Vista" style="shape=folder;fontStyle=1;tabWidth=110;tabHeight=30;tabPosition=left;html=1;boundedLbl=1;labelInHeader=1;container=1;collapsible=0;recursiveResize=0;" parent="1" vertex="1">
                    <mxGeometry x="200" y="470" width="507" height="220" as="geometry"/>
                </mxCell>
                <mxCell id="MoiTgc7sWNlrWl-F0rcY-5" value="&lt;font size=&quot;1&quot;&gt;&lt;b style=&quot;font-size: 14px&quot;&gt;API&lt;/b&gt;&lt;/font&gt;" style="text;html=1;strokeColor=none;fillColor=none;align=center;verticalAlign=middle;whiteSpace=wrap;rounded=0;" parent="MoiTgc7sWNlrWl-F0rcY-3" vertex="1">
                    <mxGeometry y="30" width="507" height="190" as="geometry"/>
                </mxCell>
                <mxCell id="MoiTgc7sWNlrWl-F0rcY-8" style="edgeStyle=orthogonalEdgeStyle;rounded=0;orthogonalLoop=1;jettySize=auto;html=1;" parent="1" source="MoiTgc7sWNlrWl-F0rcY-6" target="MoiTgc7sWNlrWl-F0rcY-3" edge="1">
                    <mxGeometry relative="1" as="geometry">
                        <Array as="points">
                            <mxPoint x="180" y="520"/>
                            <mxPoint x="180" y="520"/>
                        </Array>
                    </mxGeometry>
                </mxCell>
                <mxCell id="MoiTgc7sWNlrWl-F0rcY-28" value="&amp;lt;&amp;lt; accion &amp;gt;&amp;gt;" style="edgeLabel;html=1;align=center;verticalAlign=middle;resizable=0;points=[];" parent="MoiTgc7sWNlrWl-F0rcY-8" vertex="1" connectable="0">
                    <mxGeometry x="0.2" y="1" relative="1" as="geometry">
                        <mxPoint x="-22" y="-16" as="offset"/>
                    </mxGeometry>
                </mxCell>
                <mxCell id="MoiTgc7sWNlrWl-F0rcY-6" value="" style="shape=umlActor;verticalLabelPosition=bottom;verticalAlign=top;html=1;" parent="1" vertex="1">
                    <mxGeometry x="-20" y="470" width="50" height="100" as="geometry"/>
                </mxCell>
                <mxCell id="MoiTgc7sWNlrWl-F0rcY-9" style="edgeStyle=orthogonalEdgeStyle;rounded=0;orthogonalLoop=1;jettySize=auto;html=1;" parent="1" source="MoiTgc7sWNlrWl-F0rcY-5" target="MoiTgc7sWNlrWl-F0rcY-6" edge="1">
                    <mxGeometry relative="1" as="geometry">
                        <Array as="points">
                            <mxPoint x="120" y="550"/>
                            <mxPoint x="120" y="550"/>
                        </Array>
                    </mxGeometry>
                </mxCell>
                <mxCell id="MoiTgc7sWNlrWl-F0rcY-29" value="&amp;lt;&amp;lt; respuesta &amp;gt;&amp;gt;" style="edgeLabel;html=1;align=center;verticalAlign=middle;resizable=0;points=[];" parent="MoiTgc7sWNlrWl-F0rcY-9" vertex="1" connectable="0">
                    <mxGeometry x="-0.2588" y="3" relative="1" as="geometry">
                        <mxPoint x="-27" y="-13" as="offset"/>
                    </mxGeometry>
                </mxCell>
                <mxCell id="MoiTgc7sWNlrWl-F0rcY-10" value="Modelo" style="shape=folder;fontStyle=1;tabWidth=110;tabHeight=30;tabPosition=left;html=1;boundedLbl=1;labelInHeader=1;container=1;collapsible=0;recursiveResize=0;" parent="1" vertex="1">
                    <mxGeometry x="1021" y="110" width="314" height="292" as="geometry"/>
                </mxCell>
                <mxCell id="MoiTgc7sWNlrWl-F0rcY-11" value="&lt;font style=&quot;font-size: 14px&quot;&gt;&lt;b&gt;ORM&lt;/b&gt;&lt;/font&gt;" style="text;html=1;strokeColor=none;fillColor=none;align=center;verticalAlign=middle;whiteSpace=wrap;rounded=0;" parent="MoiTgc7sWNlrWl-F0rcY-10" vertex="1">
                    <mxGeometry y="30" width="310" height="262" as="geometry"/>
                </mxCell>
                <mxCell id="MoiTgc7sWNlrWl-F0rcY-14" style="edgeStyle=orthogonalEdgeStyle;rounded=0;orthogonalLoop=1;jettySize=auto;html=1;" parent="1" source="MoiTgc7sWNlrWl-F0rcY-12" target="MoiTgc7sWNlrWl-F0rcY-10" edge="1">
                    <mxGeometry relative="1" as="geometry">
                        <Array as="points">
                            <mxPoint x="1451" y="213"/>
                            <mxPoint x="1451" y="213"/>
                        </Array>
                    </mxGeometry>
                </mxCell>
                <mxCell id="MoiTgc7sWNlrWl-F0rcY-40" value="&amp;lt;&amp;lt; petición &amp;gt;&amp;gt;" style="edgeLabel;html=1;align=center;verticalAlign=middle;resizable=0;points=[];" parent="MoiTgc7sWNlrWl-F0rcY-14" vertex="1" connectable="0">
                    <mxGeometry x="0.2" y="-1" relative="1" as="geometry">
                        <mxPoint x="43" y="-9" as="offset"/>
                    </mxGeometry>
                </mxCell>
                <mxCell id="MoiTgc7sWNlrWl-F0rcY-12" value="" style="shape=datastore;whiteSpace=wrap;html=1;" parent="1" vertex="1">
                    <mxGeometry x="1557.53" y="163" width="70" height="100" as="geometry"/>
                </mxCell>
                <mxCell id="MoiTgc7sWNlrWl-F0rcY-13" style="edgeStyle=orthogonalEdgeStyle;rounded=0;orthogonalLoop=1;jettySize=auto;html=1;" parent="1" source="MoiTgc7sWNlrWl-F0rcY-10" target="MoiTgc7sWNlrWl-F0rcY-12" edge="1">
                    <mxGeometry relative="1" as="geometry">
                        <Array as="points">
                            <mxPoint x="1471" y="243"/>
                            <mxPoint x="1471" y="243"/>
                        </Array>
                    </mxGeometry>
                </mxCell>
                <mxCell id="MoiTgc7sWNlrWl-F0rcY-41" value="&amp;lt;&amp;lt; respuesta &amp;gt;&amp;gt;" style="edgeLabel;html=1;align=center;verticalAlign=middle;resizable=0;points=[];" parent="MoiTgc7sWNlrWl-F0rcY-13" vertex="1" connectable="0">
                    <mxGeometry x="0.1412" y="-3" relative="1" as="geometry">
                        <mxPoint x="7" y="-13" as="offset"/>
                    </mxGeometry>
                </mxCell>
                <mxCell id="MoiTgc7sWNlrWl-F0rcY-15" value="Base de datos" style="text;html=1;strokeColor=none;fillColor=none;align=center;verticalAlign=middle;whiteSpace=wrap;rounded=0;" parent="1" vertex="1">
                    <mxGeometry x="1542.53" y="278" width="100" height="20" as="geometry"/>
                </mxCell>
                <mxCell id="MoiTgc7sWNlrWl-F0rcY-16" value="Controlador" style="shape=folder;fontStyle=1;tabWidth=110;tabHeight=30;tabPosition=left;html=1;boundedLbl=1;labelInHeader=1;container=1;collapsible=0;recursiveResize=0;" parent="1" vertex="1">
                    <mxGeometry x="190" y="70" width="741" height="330" as="geometry"/>
                </mxCell>
                <mxCell id="MoiTgc7sWNlrWl-F0rcY-57" style="edgeStyle=orthogonalEdgeStyle;rounded=0;orthogonalLoop=1;jettySize=auto;html=1;fillColor=#0050ef;strokeColor=#001DBC;" parent="MoiTgc7sWNlrWl-F0rcY-16" source="MoiTgc7sWNlrWl-F0rcY-18" target="MoiTgc7sWNlrWl-F0rcY-56" edge="1">
                    <mxGeometry relative="1" as="geometry">
                        <Array as="points">
                            <mxPoint x="114" y="288"/>
                        </Array>
                    </mxGeometry>
                </mxCell>
                <mxCell id="MoiTgc7sWNlrWl-F0rcY-58" value="&amp;lt;&amp;lt; exportar datos &amp;gt;&amp;gt;" style="edgeLabel;html=1;align=center;verticalAlign=middle;resizable=0;points=[];fontColor=#001DBC;" parent="MoiTgc7sWNlrWl-F0rcY-57" vertex="1" connectable="0">
                    <mxGeometry x="-0.2235" relative="1" as="geometry">
                        <mxPoint x="58" y="-60" as="offset"/>
                    </mxGeometry>
                </mxCell>
                <mxCell id="MoiTgc7sWNlrWl-F0rcY-67" style="edgeStyle=orthogonalEdgeStyle;rounded=0;orthogonalLoop=1;jettySize=auto;html=1;exitX=0.908;exitY=0.129;exitDx=0;exitDy=0;exitPerimeter=0;fillColor=#a20025;strokeColor=#6F0000;" parent="MoiTgc7sWNlrWl-F0rcY-16" source="MoiTgc7sWNlrWl-F0rcY-18" target="MoiTgc7sWNlrWl-F0rcY-66" edge="1">
                    <mxGeometry relative="1" as="geometry">
                        <Array as="points">
                            <mxPoint x="266" y="253"/>
                        </Array>
                    </mxGeometry>
                </mxCell>
                <mxCell id="MoiTgc7sWNlrWl-F0rcY-68" value="&amp;lt;&amp;lt; ruta archivo &amp;gt;&amp;gt;" style="edgeLabel;html=1;align=center;verticalAlign=middle;resizable=0;points=[];fontColor=#6F0000;" parent="MoiTgc7sWNlrWl-F0rcY-67" vertex="1" connectable="0">
                    <mxGeometry x="0.6833" y="-1" relative="1" as="geometry">
                        <mxPoint x="-36.03" y="-12" as="offset"/>
                    </mxGeometry>
                </mxCell>
                <mxCell id="8" style="edgeStyle=orthogonalEdgeStyle;rounded=0;orthogonalLoop=1;jettySize=auto;html=1;strokeColor=#005700;fontColor=#001DBC;fillColor=#008a00;" edge="1" parent="MoiTgc7sWNlrWl-F0rcY-16" source="MoiTgc7sWNlrWl-F0rcY-18" target="7">
                    <mxGeometry relative="1" as="geometry">
                        <Array as="points">
                            <mxPoint x="245" y="192"/>
                            <mxPoint x="630" y="192"/>
                        </Array>
                    </mxGeometry>
                </mxCell>
                <mxCell id="10" value="&amp;lt;&amp;lt; acción &amp;gt;&amp;gt;" style="edgeLabel;html=1;align=center;verticalAlign=middle;resizable=0;points=[];fontColor=#005700;" vertex="1" connectable="0" parent="8">
                    <mxGeometry x="0.7595" y="-4" relative="1" as="geometry">
                        <mxPoint x="-135" y="-17" as="offset"/>
                    </mxGeometry>
                </mxCell>
                <mxCell id="MoiTgc7sWNlrWl-F0rcY-18" value="&lt;div&gt;Sevicio de &lt;br&gt;&lt;/div&gt;&lt;div&gt;Autenticación&lt;br&gt;&lt;/div&gt;" style="shape=folder;fontStyle=1;tabWidth=110;tabHeight=30;tabPosition=left;html=1;boundedLbl=1;labelInHeader=1;container=1;collapsible=0;recursiveResize=0;" parent="MoiTgc7sWNlrWl-F0rcY-16" vertex="1">
                    <mxGeometry x="157" y="236" width="120" height="70" as="geometry"/>
                </mxCell>
                <mxCell id="MoiTgc7sWNlrWl-F0rcY-56" value="&lt;div&gt;&lt;font color=&quot;#001dbc&quot;&gt;Sevicio de &lt;br&gt;&lt;/font&gt;&lt;/div&gt;&lt;div&gt;&lt;font color=&quot;#001dbc&quot;&gt;exportación&lt;/font&gt;&lt;/div&gt;" style="shape=folder;fontStyle=1;tabWidth=110;tabHeight=30;tabPosition=left;html=1;boundedLbl=1;labelInHeader=1;container=1;collapsible=0;recursiveResize=0;strokeColor=#001DBC;fontColor=#ffffff;fillColor=none;" parent="MoiTgc7sWNlrWl-F0rcY-16" vertex="1">
                    <mxGeometry x="30" y="134" width="120" height="70" as="geometry"/>
                </mxCell>
                <mxCell id="MoiTgc7sWNlrWl-F0rcY-66" value="&lt;div&gt;&lt;font color=&quot;#6f0000&quot;&gt;Sevicio de &lt;br&gt;&lt;/font&gt;&lt;/div&gt;&lt;font color=&quot;#6f0000&quot;&gt;archivos&lt;/font&gt;" style="shape=folder;fontStyle=1;tabWidth=110;tabHeight=30;tabPosition=left;html=1;boundedLbl=1;labelInHeader=1;container=1;collapsible=0;recursiveResize=0;strokeColor=#6F0000;fontColor=#ffffff;fillColor=none;" parent="MoiTgc7sWNlrWl-F0rcY-16" vertex="1">
                    <mxGeometry x="384" y="238" width="120" height="70" as="geometry"/>
                </mxCell>
                <mxCell id="7" value="&lt;font color=&quot;#005700&quot;&gt;Gestión de Datos&lt;/font&gt;" style="shape=folder;fontStyle=1;tabWidth=110;tabHeight=30;tabPosition=left;html=1;boundedLbl=1;labelInHeader=1;container=1;collapsible=0;recursiveResize=0;fontColor=#ffffff;fillColor=none;strokeColor=#005700;" vertex="1" parent="MoiTgc7sWNlrWl-F0rcY-16">
                    <mxGeometry x="570" y="237" width="120" height="70" as="geometry"/>
                </mxCell>
                <mxCell id="MoiTgc7sWNlrWl-F0rcY-23" style="edgeStyle=orthogonalEdgeStyle;rounded=0;orthogonalLoop=1;jettySize=auto;html=1;" parent="1" source="MoiTgc7sWNlrWl-F0rcY-18" edge="1" target="MoiTgc7sWNlrWl-F0rcY-5">
                    <mxGeometry relative="1" as="geometry">
                        <mxPoint x="265" y="470" as="targetPoint"/>
                        <Array as="points">
                            <mxPoint x="426" y="425"/>
                            <mxPoint x="426" y="425"/>
                        </Array>
                    </mxGeometry>
                </mxCell>
                <mxCell id="MoiTgc7sWNlrWl-F0rcY-26" value="&amp;lt;&amp;lt; acceso&lt;br&gt;denegado &amp;gt;&amp;gt;" style="edgeLabel;html=1;align=center;verticalAlign=middle;resizable=0;points=[];" parent="MoiTgc7sWNlrWl-F0rcY-23" vertex="1" connectable="0">
                    <mxGeometry x="0.1895" y="2" relative="1" as="geometry">
                        <mxPoint x="35.99999999999999" y="-10.000000000000004" as="offset"/>
                    </mxGeometry>
                </mxCell>
                <mxCell id="MoiTgc7sWNlrWl-F0rcY-24" style="edgeStyle=orthogonalEdgeStyle;rounded=0;orthogonalLoop=1;jettySize=auto;html=1;" parent="1" source="MoiTgc7sWNlrWl-F0rcY-5" target="MoiTgc7sWNlrWl-F0rcY-18" edge="1">
                    <mxGeometry relative="1" as="geometry">
                        <Array as="points">
                            <mxPoint x="372" y="396"/>
                            <mxPoint x="372" y="396"/>
                        </Array>
                    </mxGeometry>
                </mxCell>
                <mxCell id="MoiTgc7sWNlrWl-F0rcY-30" value="&amp;lt;&amp;lt; solicitud de &lt;br&gt;acceso &amp;gt;&amp;gt;" style="edgeLabel;html=1;align=center;verticalAlign=middle;resizable=0;points=[];" parent="MoiTgc7sWNlrWl-F0rcY-24" vertex="1" connectable="0">
                    <mxGeometry x="-0.375" y="-2" relative="1" as="geometry">
                        <mxPoint x="-44" y="-19" as="offset"/>
                    </mxGeometry>
                </mxCell>
                <mxCell id="MoiTgc7sWNlrWl-F0rcY-59" style="edgeStyle=orthogonalEdgeStyle;rounded=0;orthogonalLoop=1;jettySize=auto;html=1;fillColor=#0050ef;strokeColor=#001DBC;" parent="1" source="MoiTgc7sWNlrWl-F0rcY-56" target="MoiTgc7sWNlrWl-F0rcY-10" edge="1">
                    <mxGeometry relative="1" as="geometry">
                        <mxPoint x="921" y="500" as="targetPoint"/>
                        <Array as="points">
                            <mxPoint x="562" y="177"/>
                            <mxPoint x="562" y="177"/>
                        </Array>
                    </mxGeometry>
                </mxCell>
                <mxCell id="2" value="&amp;lt;&amp;lt; solicitud de datos &amp;gt;&amp;gt;" style="edgeLabel;html=1;align=center;verticalAlign=middle;resizable=0;points=[];fontColor=#001DBC;" vertex="1" connectable="0" parent="MoiTgc7sWNlrWl-F0rcY-59">
                    <mxGeometry x="0.4377" y="2" relative="1" as="geometry">
                        <mxPoint x="-83" y="-6" as="offset"/>
                    </mxGeometry>
                </mxCell>
                <mxCell id="MoiTgc7sWNlrWl-F0rcY-61" style="edgeStyle=orthogonalEdgeStyle;rounded=0;orthogonalLoop=1;jettySize=auto;html=1;fillColor=#0050ef;strokeColor=#001DBC;" parent="1" source="MoiTgc7sWNlrWl-F0rcY-10" target="MoiTgc7sWNlrWl-F0rcY-56" edge="1">
                    <mxGeometry relative="1" as="geometry">
                        <Array as="points">
                            <mxPoint x="246" y="147"/>
                        </Array>
                    </mxGeometry>
                </mxCell>
                <mxCell id="MoiTgc7sWNlrWl-F0rcY-62" value="&lt;font color=&quot;#001dbc&quot;&gt;&amp;lt;&amp;lt; datos_de_exportación&amp;nbsp;&amp;gt;&amp;gt;&lt;/font&gt;" style="edgeLabel;html=1;align=center;verticalAlign=middle;resizable=0;points=[];" parent="MoiTgc7sWNlrWl-F0rcY-61" vertex="1" connectable="0">
                    <mxGeometry x="-0.7207" y="-2" relative="1" as="geometry">
                        <mxPoint x="-155" y="-9" as="offset"/>
                    </mxGeometry>
                </mxCell>
                <mxCell id="3" style="edgeStyle=orthogonalEdgeStyle;rounded=0;orthogonalLoop=1;jettySize=auto;html=1;fillColor=#a20025;strokeColor=#6F0000;" edge="1" parent="1" source="MoiTgc7sWNlrWl-F0rcY-66" target="MoiTgc7sWNlrWl-F0rcY-5">
                    <mxGeometry relative="1" as="geometry">
                        <Array as="points">
                            <mxPoint x="604" y="418"/>
                            <mxPoint x="604" y="418"/>
                        </Array>
                    </mxGeometry>
                </mxCell>
                <mxCell id="4" value="&amp;lt;&amp;lt;archivo&amp;gt;&amp;gt;" style="edgeLabel;html=1;align=center;verticalAlign=middle;resizable=0;points=[];fontColor=#6F0000;" vertex="1" connectable="0" parent="3">
                    <mxGeometry x="-0.3279" y="1" relative="1" as="geometry">
                        <mxPoint x="33" y="26" as="offset"/>
                    </mxGeometry>
                </mxCell>
                <mxCell id="5" style="edgeStyle=orthogonalEdgeStyle;rounded=0;orthogonalLoop=1;jettySize=auto;html=1;entryX=0;entryY=0;entryDx=55;entryDy=0;entryPerimeter=0;fillColor=#0050ef;strokeColor=#001DBC;" edge="1" parent="1" source="MoiTgc7sWNlrWl-F0rcY-56" target="MoiTgc7sWNlrWl-F0rcY-3">
                    <mxGeometry relative="1" as="geometry">
                        <Array as="points">
                            <mxPoint x="255" y="305"/>
                            <mxPoint x="255" y="305"/>
                        </Array>
                    </mxGeometry>
                </mxCell>
                <mxCell id="6" value="&amp;lt;&amp;lt;archivo&amp;gt;&amp;gt;" style="edgeLabel;html=1;align=center;verticalAlign=middle;resizable=0;points=[];fontColor=#001DBC;" vertex="1" connectable="0" parent="5">
                    <mxGeometry x="0.6875" y="2" relative="1" as="geometry">
                        <mxPoint x="-40" y="-110" as="offset"/>
                    </mxGeometry>
                </mxCell>
                <mxCell id="11" style="edgeStyle=orthogonalEdgeStyle;rounded=0;orthogonalLoop=1;jettySize=auto;html=1;strokeColor=#005700;fontColor=#005700;fillColor=#008a00;" edge="1" parent="1" source="7" target="MoiTgc7sWNlrWl-F0rcY-11">
                    <mxGeometry relative="1" as="geometry">
                        <Array as="points">
                            <mxPoint x="993" y="342"/>
                            <mxPoint x="993" y="342"/>
                        </Array>
                    </mxGeometry>
                </mxCell>
                <mxCell id="12" value="&amp;lt;&amp;lt; acción &amp;gt;&amp;gt;" style="edgeLabel;html=1;align=center;verticalAlign=middle;resizable=0;points=[];fontColor=#005700;" vertex="1" connectable="0" parent="11">
                    <mxGeometry x="0.1773" y="-1" relative="1" as="geometry">
                        <mxPoint x="8" y="-15" as="offset"/>
                    </mxGeometry>
                </mxCell>
                <mxCell id="13" style="edgeStyle=orthogonalEdgeStyle;rounded=0;orthogonalLoop=1;jettySize=auto;html=1;strokeColor=#005700;fontColor=#005700;fillColor=#008a00;" edge="1" parent="1" source="MoiTgc7sWNlrWl-F0rcY-11" target="7">
                    <mxGeometry relative="1" as="geometry">
                        <Array as="points">
                            <mxPoint x="972" y="367"/>
                            <mxPoint x="972" y="367"/>
                        </Array>
                    </mxGeometry>
                </mxCell>
                <mxCell id="14" value="&amp;lt;&amp;lt; respuesta &amp;gt;&amp;gt;" style="edgeLabel;html=1;align=center;verticalAlign=middle;resizable=0;points=[];fontColor=#005700;" vertex="1" connectable="0" parent="13">
                    <mxGeometry x="-0.3333" relative="1" as="geometry">
                        <mxPoint x="3" y="7" as="offset"/>
                    </mxGeometry>
                </mxCell>
                <mxCell id="15" style="edgeStyle=orthogonalEdgeStyle;rounded=0;orthogonalLoop=1;jettySize=auto;html=1;strokeColor=#005700;fontColor=#005700;fillColor=#008a00;" edge="1" parent="1" source="7" target="MoiTgc7sWNlrWl-F0rcY-5">
                    <mxGeometry relative="1" as="geometry">
                        <Array as="points">
                            <mxPoint x="820" y="588"/>
                        </Array>
                    </mxGeometry>
                </mxCell>
                <mxCell id="16" value="&amp;lt;&amp;lt; respuesta &amp;gt;&amp;gt;" style="edgeLabel;html=1;align=center;verticalAlign=middle;resizable=0;points=[];fontColor=#005700;" vertex="1" connectable="0" parent="15">
                    <mxGeometry x="-0.4506" relative="1" as="geometry">
                        <mxPoint x="55" y="48" as="offset"/>
                    </mxGeometry>
                </mxCell>
            </root>
        </mxGraphModel>
    </diagram>
</mxfile>